# xmcd CD database file
#
# Track frame offsets:
#	150
#	18124
#	43389
#	59246
#	76425
#	94726
#	117870
#	136725
#	159536
#	178855
#
# Disc length: 2572 seconds
#
# Revision: 0
# Processed by: cddbd v1.5.2PL0 Copyright (c) Steve Scherf et al.
# Submitted via: CDex 1.51
#
DISCID=850a0a0a
DTITLE=Steve Arvey - X
DYEAR=2010
DGENRE=Blues
TTITLE0=Bar Room Blues
TTITLE1=Venice Beach
TTITLE2=Dreams We Left Behind
TTITLE3=Another Dream Is Broken
TTITLE4=Love Is Earned
TTITLE5=Madrid
TTITLE6=Cows Come Home
TTITLE7=Fort Desoto
TTITLE8=Love Is A Painful Thing
TTITLE9=Marry Me
EXTD=YEAR: 2010
EXTT0=
EXTT1=
EXTT2=
EXTT3=
EXTT4=
EXTT5=
EXTT6=
EXTT7=
EXTT8=
EXTT9=
PLAYORDER=
